<?xml version="1.0" encoding="UTF-8"?>
<!DOCTYPE svg PUBLIC "-//W3C//DTD SVG 1.1//EN" "http://www.w3.org/Graphics/SVG/1.1/DTD/svg11.dtd">
<svg xmlns="http://www.w3.org/2000/svg" style="background-color: rgb(255, 255, 255);" xmlns:xlink="http://www.w3.org/1999/xlink" version="1.1" width="1192px" height="783px" viewBox="-0.5 -0.5 1192 783"><defs><clipPath id="mx-clip-31-361-50-30-0"><rect x="31" y="361" width="50" height="30"/></clipPath><clipPath id="mx-clip-87-361-164-30-0"><rect x="87" y="361" width="164" height="30"/></clipPath><clipPath id="mx-clip-257-361-134-30-0"><rect x="257" y="361" width="134" height="30"/></clipPath><clipPath id="mx-clip-87-391-164-30-0"><rect x="87" y="391" width="164" height="30"/></clipPath><clipPath id="mx-clip-257-391-134-30-0"><rect x="257" y="391" width="134" height="30"/></clipPath><clipPath id="mx-clip-87-421-164-30-0"><rect x="87" y="421" width="164" height="30"/></clipPath><clipPath id="mx-clip-257-421-134-30-0"><rect x="257" y="421" width="134" height="30"/></clipPath><clipPath id="mx-clip-492-351-50-30-0"><rect x="492" y="351" width="50" height="30"/></clipPath><clipPath id="mx-clip-548-351-164-30-0"><rect x="548" y="351" width="164" height="30"/></clipPath><clipPath id="mx-clip-718-351-273-30-0"><rect x="718" y="351" width="273" height="30"/></clipPath><clipPath id="mx-clip-492-381-50-30-0"><rect x="492" y="381" width="50" height="30"/></clipPath><clipPath id="mx-clip-548-381-164-30-0"><rect x="548" y="381" width="164" height="30"/></clipPath><clipPath id="mx-clip-718-381-273-30-0"><rect x="718" y="381" width="273" height="30"/></clipPath><clipPath id="mx-clip-548-411-164-30-0"><rect x="548" y="411" width="164" height="30"/></clipPath><clipPath id="mx-clip-718-411-273-30-0"><rect x="718" y="411" width="273" height="30"/></clipPath><clipPath id="mx-clip-548-441-164-30-0"><rect x="548" y="441" width="164" height="30"/></clipPath><clipPath id="mx-clip-718-441-273-30-0"><rect x="718" y="441" width="273" height="30"/></clipPath><clipPath id="mx-clip-548-471-164-30-0"><rect x="548" y="471" width="164" height="30"/></clipPath><clipPath id="mx-clip-718-471-273-30-0"><rect x="718" y="471" width="273" height="30"/></clipPath><clipPath id="mx-clip-548-501-164-30-0"><rect x="548" y="501" width="164" height="30"/></clipPath><clipPath id="mx-clip-718-501-273-30-0"><rect x="718" y="501" width="273" height="30"/></clipPath><clipPath id="mx-clip-548-531-164-30-0"><rect x="548" y="531" width="164" height="30"/></clipPath><clipPath id="mx-clip-718-531-273-30-0"><rect x="718" y="531" width="273" height="30"/></clipPath><clipPath id="mx-clip-548-561-164-30-0"><rect x="548" y="561" width="164" height="30"/></clipPath><clipPath id="mx-clip-718-561-273-30-0"><rect x="718" y="561" width="273" height="30"/></clipPath><clipPath id="mx-clip-548-591-164-30-0"><rect x="548" y="591" width="164" height="30"/></clipPath><clipPath id="mx-clip-718-591-273-30-0"><rect x="718" y="591" width="273" height="30"/></clipPath><clipPath id="mx-clip-92-691-50-30-0"><rect x="92" y="691" width="50" height="30"/></clipPath><clipPath id="mx-clip-148-691-164-30-0"><rect x="148" y="691" width="164" height="30"/></clipPath><clipPath id="mx-clip-318-691-113-30-0"><rect x="318" y="691" width="113" height="30"/></clipPath><clipPath id="mx-clip-92-721-50-30-0"><rect x="92" y="721" width="50" height="30"/></clipPath><clipPath id="mx-clip-148-721-164-30-0"><rect x="148" y="721" width="164" height="30"/></clipPath><clipPath id="mx-clip-318-721-113-30-0"><rect x="318" y="721" width="113" height="30"/></clipPath><clipPath id="mx-clip-1-51-50-30-0"><rect x="1" y="51" width="50" height="30"/></clipPath><clipPath id="mx-clip-57-51-164-30-0"><rect x="57" y="51" width="164" height="30"/></clipPath><clipPath id="mx-clip-227-51-274-30-0"><rect x="227" y="51" width="274" height="30"/></clipPath><clipPath id="mx-clip-57-81-164-30-0"><rect x="57" y="81" width="164" height="30"/></clipPath><clipPath id="mx-clip-227-81-274-30-0"><rect x="227" y="81" width="274" height="30"/></clipPath><clipPath id="mx-clip-57-111-164-30-0"><rect x="57" y="111" width="164" height="30"/></clipPath><clipPath id="mx-clip-227-111-274-30-0"><rect x="227" y="111" width="274" height="30"/></clipPath><clipPath id="mx-clip-57-141-164-30-0"><rect x="57" y="141" width="164" height="30"/></clipPath><clipPath id="mx-clip-227-141-274-30-0"><rect x="227" y="141" width="274" height="30"/></clipPath><clipPath id="mx-clip-57-171-164-30-0"><rect x="57" y="171" width="164" height="30"/></clipPath><clipPath id="mx-clip-227-171-274-30-0"><rect x="227" y="171" width="274" height="30"/></clipPath><clipPath id="mx-clip-57-201-164-30-0"><rect x="57" y="201" width="164" height="30"/></clipPath><clipPath id="mx-clip-227-201-274-30-0"><rect x="227" y="201" width="274" height="30"/></clipPath><clipPath id="mx-clip-691-51-50-30-0"><rect x="691" y="51" width="50" height="30"/></clipPath><clipPath id="mx-clip-747-51-164-30-0"><rect x="747" y="51" width="164" height="30"/></clipPath><clipPath id="mx-clip-917-51-274-30-0"><rect x="917" y="51" width="274" height="30"/></clipPath><clipPath id="mx-clip-691-81-50-30-0"><rect x="691" y="81" width="50" height="30"/></clipPath><clipPath id="mx-clip-747-81-164-30-0"><rect x="747" y="81" width="164" height="30"/></clipPath><clipPath id="mx-clip-917-81-274-30-0"><rect x="917" y="81" width="274" height="30"/></clipPath><clipPath id="mx-clip-747-111-164-30-0"><rect x="747" y="111" width="164" height="30"/></clipPath><clipPath id="mx-clip-917-111-274-30-0"><rect x="917" y="111" width="274" height="30"/></clipPath><clipPath id="mx-clip-747-141-164-30-0"><rect x="747" y="141" width="164" height="30"/></clipPath><clipPath id="mx-clip-917-141-274-30-0"><rect x="917" y="141" width="274" height="30"/></clipPath><clipPath id="mx-clip-747-171-164-30-0"><rect x="747" y="171" width="164" height="30"/></clipPath><clipPath id="mx-clip-917-171-274-30-0"><rect x="917" y="171" width="274" height="30"/></clipPath><clipPath id="mx-clip-747-201-164-30-0"><rect x="747" y="201" width="164" height="30"/></clipPath><clipPath id="mx-clip-917-201-274-30-0"><rect x="917" y="201" width="274" height="30"/></clipPath></defs><g><path d="M 391 361 L 391 333.5 Q 391 311 368.5 311 L 53.5 311 Q 31 311 31 333.5 L 31 361" fill="#dae8fc" stroke="#6c8ebf" stroke-width="2" stroke-miterlimit="10" pointer-events="all"/><path d="M 31 361 L 31 458.5 Q 31 481 53.5 481 L 368.5 481 Q 391 481 391 458.5 L 391 361" fill="none" stroke="#6c8ebf" stroke-width="2" stroke-miterlimit="10" pointer-events="none"/><path d="M 31 361 L 391 361" fill="none" stroke="#6c8ebf" stroke-width="2" stroke-miterlimit="10" pointer-events="none"/><path d="M 81 361 L 81 391 L 81 421 L 81 451 L 81 481" fill="none" stroke="#6c8ebf" stroke-width="2" stroke-miterlimit="10" pointer-events="none"/><path d="M 251 361 L 251 391 L 251 421 L 251 451 L 251 481" fill="none" stroke="#6c8ebf" stroke-width="2" stroke-miterlimit="10" pointer-events="none"/><g fill="rgb(0, 0, 0)" font-family="Helvetica" font-weight="bold" pointer-events="none" text-anchor="middle" font-size="12px"><text x="210.5" y="340.5">tag</text></g><path d="M 31 361 M 391 361 M 391 391 L 31 391" fill="none" stroke="rgb(0, 0, 0)" stroke-linecap="square" stroke-miterlimit="10" pointer-events="none"/><path d="M 31 361 M 81 361 M 81 391 M 31 391" fill="none" stroke="rgb(0, 0, 0)" stroke-linecap="square" stroke-miterlimit="10" pointer-events="none"/><g fill="rgb(0, 0, 0)" font-family="Helvetica" font-weight="bold" pointer-events="none" clip-path="url(#mx-clip-31-361-50-30-0)" text-anchor="middle" font-size="12px"><text x="55.5" y="380.5">PK</text></g><path d="M 81 361 M 251 361 M 251 391 M 81 391" fill="none" stroke="rgb(0, 0, 0)" stroke-linecap="square" stroke-miterlimit="10" pointer-events="none"/><g fill="rgb(0, 0, 0)" font-family="Helvetica" font-weight="bold" text-decoration="underline" pointer-events="none" clip-path="url(#mx-clip-87-361-164-30-0)" font-size="12px"><text x="88.5" y="380.5">id</text></g><path d="M 251 361 M 391 361 M 391 391 M 251 391" fill="none" stroke="rgb(0, 0, 0)" stroke-linecap="square" stroke-miterlimit="10" pointer-events="none"/><g fill="rgb(0, 0, 0)" font-family="Helvetica" pointer-events="none" clip-path="url(#mx-clip-257-361-134-30-0)" font-size="12px"><text x="258.5" y="380.5">INT NN AI</text></g><path d="M 31 391 M 391 391 M 391 421 M 31 421" fill="none" stroke="rgb(0, 0, 0)" stroke-linecap="square" stroke-miterlimit="10" pointer-events="none"/><path d="M 31 391 M 81 391 M 81 421 M 31 421" fill="none" stroke="rgb(0, 0, 0)" stroke-linecap="square" stroke-miterlimit="10" pointer-events="none"/><path d="M 81 391 M 251 391 M 251 421 M 81 421" fill="none" stroke="rgb(0, 0, 0)" stroke-linecap="square" stroke-miterlimit="10" pointer-events="none"/><g fill="rgb(0, 0, 0)" font-family="Helvetica" pointer-events="none" clip-path="url(#mx-clip-87-391-164-30-0)" font-size="12px"><text x="88.5" y="410.5">key</text></g><path d="M 251 391 M 391 391 M 391 421 M 251 421" fill="none" stroke="rgb(0, 0, 0)" stroke-linecap="square" stroke-miterlimit="10" pointer-events="none"/><g fill="rgb(0, 0, 0)" font-family="Helvetica" pointer-events="none" clip-path="url(#mx-clip-257-391-134-30-0)" font-size="12px"><text x="258.5" y="410.5">VARCHAR(15) NN UNI</text></g><path d="M 31 421 M 391 421 M 391 451 M 31 451" fill="none" stroke="rgb(0, 0, 0)" stroke-linecap="square" stroke-miterlimit="10" pointer-events="none"/><path d="M 31 421 M 81 421 M 81 451 M 31 451" fill="none" stroke="rgb(0, 0, 0)" stroke-linecap="square" stroke-miterlimit="10" pointer-events="none"/><path d="M 81 421 M 251 421 M 251 451 M 81 451" fill="none" stroke="rgb(0, 0, 0)" stroke-linecap="square" stroke-miterlimit="10" pointer-events="none"/><g fill="rgb(0, 0, 0)" font-family="Helvetica" pointer-events="none" clip-path="url(#mx-clip-87-421-164-30-0)" font-size="12px"><text x="88.5" y="440.5">description</text></g><path d="M 251 421 M 391 421 M 391 451 M 251 451" fill="none" stroke="rgb(0, 0, 0)" stroke-linecap="square" stroke-miterlimit="10" pointer-events="none"/><g fill="rgb(0, 0, 0)" font-family="Helvetica" pointer-events="none" clip-path="url(#mx-clip-257-421-134-30-0)" font-size="12px"><text x="258.5" y="440.5">VARCHAR(100)</text></g><path d="M 31 451 M 391 451 M 391 481 M 31 481" fill="none" stroke="rgb(0, 0, 0)" stroke-linecap="square" stroke-miterlimit="10" pointer-events="none"/><path d="M 31 451 M 81 451 M 81 481 M 31 481" fill="none" stroke="rgb(0, 0, 0)" stroke-linecap="square" stroke-miterlimit="10" pointer-events="none"/><path d="M 81 451 M 251 451 M 251 481 M 81 481" fill="none" stroke="rgb(0, 0, 0)" stroke-linecap="square" stroke-miterlimit="10" pointer-events="none"/><path d="M 251 451 M 391 451 M 391 481 M 251 481" fill="none" stroke="rgb(0, 0, 0)" stroke-linecap="square" stroke-miterlimit="10" pointer-events="none"/><path d="M 492 476 L 461.5 476 L 461.5 642.67 L 249.97 642.68" fill="none" stroke="rgb(0, 0, 0)" stroke-miterlimit="10" pointer-events="none"/><path d="M 488 480 L 488 472 M 484 480 L 484 472" fill="none" stroke="rgb(0, 0, 0)" stroke-miterlimit="10" pointer-events="none"/><path d="M 257.97 638.68 L 257.97 646.68 M 249.97 646.68 L 257.97 642.68 L 249.97 638.68" fill="none" stroke="rgb(0, 0, 0)" stroke-miterlimit="10" pointer-events="none"/><path d="M 866.25 301 L 866.33 281 L 671 281 L 671 131 L 675.5 131" fill="none" stroke="rgb(0, 0, 0)" stroke-miterlimit="10" pointer-events="none"/><path d="M 862.27 296.98 L 870.27 297.02 M 862.28 292.98 L 870.28 293.02" fill="none" stroke="rgb(0, 0, 0)" stroke-miterlimit="10" pointer-events="none"/><ellipse cx="679" cy="131" rx="3" ry="3" fill="transparent" stroke="rgb(0, 0, 0)" pointer-events="none"/><path d="M 691 127 L 683 131 L 691 135 M 683 131 L 691 131" fill="none" stroke="rgb(0, 0, 0)" stroke-miterlimit="10" pointer-events="none"/><path d="M 991 351 L 991 323.5 Q 991 301 968.5 301 L 514.5 301 Q 492 301 492 323.5 L 492 351" fill="#dae8fc" stroke="#6c8ebf" stroke-width="2" stroke-miterlimit="10" pointer-events="none"/><path d="M 492 351 L 492 628.5 Q 492 651 514.5 651 L 968.5 651 Q 991 651 991 628.5 L 991 351" fill="none" stroke="#6c8ebf" stroke-width="2" stroke-miterlimit="10" pointer-events="none"/><path d="M 492 351 L 991 351" fill="none" stroke="#6c8ebf" stroke-width="2" stroke-miterlimit="10" pointer-events="none"/><path d="M 542 351 L 542 381 L 542 411 L 542 441 L 542 471 L 542 501 L 542 531 L 542 561 L 542 591 L 542 621 L 542 651" fill="none" stroke="#6c8ebf" stroke-width="2" stroke-miterlimit="10" pointer-events="none"/><path d="M 712 351 L 712 381 L 712 411 L 712 441 L 712 471 L 712 501 L 712 531 L 712 561 L 712 591 L 712 621 L 712 651" fill="none" stroke="#6c8ebf" stroke-width="2" stroke-miterlimit="10" pointer-events="none"/><g fill="rgb(0, 0, 0)" font-family="Helvetica" font-weight="bold" pointer-events="none" text-anchor="middle" font-size="12px"><text x="741" y="330.5">post</text></g><path d="M 492 351 M 991 351 M 991 381 L 492 381" fill="none" stroke="rgb(0, 0, 0)" stroke-linecap="square" stroke-miterlimit="10" pointer-events="none"/><path d="M 492 351 M 542 351 M 542 381 M 492 381" fill="none" stroke="rgb(0, 0, 0)" stroke-linecap="square" stroke-miterlimit="10" pointer-events="none"/><g fill="rgb(0, 0, 0)" font-family="Helvetica" font-weight="bold" pointer-events="none" clip-path="url(#mx-clip-492-351-50-30-0)" text-anchor="middle" font-size="12px"><text x="516.5" y="370.5">PK</text></g><path d="M 542 351 M 712 351 M 712 381 M 542 381" fill="none" stroke="rgb(0, 0, 0)" stroke-linecap="square" stroke-miterlimit="10" pointer-events="none"/><g fill="rgb(0, 0, 0)" font-family="Helvetica" font-weight="bold" text-decoration="underline" pointer-events="none" clip-path="url(#mx-clip-548-351-164-30-0)" font-size="12px"><text x="549.5" y="370.5">post_uuid</text></g><path d="M 712 351 M 991 351 M 991 381 M 712 381" fill="none" stroke="rgb(0, 0, 0)" stroke-linecap="square" stroke-miterlimit="10" pointer-events="none"/><g fill="rgb(0, 0, 0)" font-family="Helvetica" pointer-events="none" clip-path="url(#mx-clip-718-351-273-30-0)" font-size="12px"><text x="719.5" y="370.5">VARCHAR(36) NN</text></g><path d="M 492 381 M 991 381 M 991 411 M 492 411" fill="none" stroke="rgb(0, 0, 0)" stroke-linecap="square" stroke-miterlimit="10" pointer-events="none"/><path d="M 492 381 M 542 381 M 542 411 M 492 411" fill="none" stroke="rgb(0, 0, 0)" stroke-linecap="square" stroke-miterlimit="10" pointer-events="none"/><g fill="rgb(0, 0, 0)" font-family="Helvetica" pointer-events="none" clip-path="url(#mx-clip-492-381-50-30-0)" text-anchor="middle" font-size="12px"><text x="516.5" y="400.5">FK</text></g><path d="M 542 381 M 712 381 M 712 411 M 542 411" fill="none" stroke="rgb(0, 0, 0)" stroke-linecap="square" stroke-miterlimit="10" pointer-events="none"/><g fill="rgb(0, 0, 0)" font-family="Helvetica" pointer-events="none" clip-path="url(#mx-clip-548-381-164-30-0)" font-size="12px"><text x="549.5" y="400.5">author_id</text></g><path d="M 712 381 M 991 381 M 991 411 M 712 411" fill="none" stroke="rgb(0, 0, 0)" stroke-linecap="square" stroke-miterlimit="10" pointer-events="none"/><g fill="rgb(0, 0, 0)" font-family="Helvetica" pointer-events="none" clip-path="url(#mx-clip-718-381-273-30-0)" font-size="12px"><text x="719.5" y="400.5">VARCHAR(36) NN</text></g><path d="M 492 411 M 991 411 M 991 441 M 492 441" fill="none" stroke="rgb(0, 0, 0)" stroke-linecap="square" stroke-miterlimit="10" pointer-events="none"/><path d="M 492 411 M 542 411 M 542 441 M 492 441" fill="none" stroke="rgb(0, 0, 0)" stroke-linecap="square" stroke-miterlimit="10" pointer-events="none"/><path d="M 542 411 M 712 411 M 712 441 M 542 441" fill="none" stroke="rgb(0, 0, 0)" stroke-linecap="square" stroke-miterlimit="10" pointer-events="none"/><g fill="rgb(0, 0, 0)" font-family="Helvetica" pointer-events="none" clip-path="url(#mx-clip-548-411-164-30-0)" font-size="12px"><text x="549.5" y="430.5">title</text></g><path d="M 712 411 M 991 411 M 991 441 M 712 441" fill="none" stroke="rgb(0, 0, 0)" stroke-linecap="square" stroke-miterlimit="10" pointer-events="none"/><g fill="rgb(0, 0, 0)" font-family="Helvetica" pointer-events="none" clip-path="url(#mx-clip-718-411-273-30-0)" font-size="12px"><text x="719.5" y="430.5">VARCHAR(50) NN</text></g><path d="M 492 441 M 991 441 M 991 471 M 492 471" fill="none" stroke="rgb(0, 0, 0)" stroke-linecap="square" stroke-miterlimit="10" pointer-events="none"/><path d="M 492 441 M 542 441 M 542 471 M 492 471" fill="none" stroke="rgb(0, 0, 0)" stroke-linecap="square" stroke-miterlimit="10" pointer-events="none"/><path d="M 542 441 M 712 441 M 712 471 M 542 471" fill="none" stroke="rgb(0, 0, 0)" stroke-linecap="square" stroke-miterlimit="10" pointer-events="none"/><g fill="rgb(0, 0, 0)" font-family="Helvetica" pointer-events="none" clip-path="url(#mx-clip-548-441-164-30-0)" font-size="12px"><text x="549.5" y="460.5">summary</text></g><path d="M 712 441 M 991 441 M 991 471 M 712 471" fill="none" stroke="rgb(0, 0, 0)" stroke-linecap="square" stroke-miterlimit="10" pointer-events="none"/><g fill="rgb(0, 0, 0)" font-family="Helvetica" pointer-events="none" clip-path="url(#mx-clip-718-441-273-30-0)" font-size="12px"><text x="719.5" y="460.5">VARCHAR(100)</text></g><path d="M 492 471 M 991 471 M 991 501 M 492 501" fill="none" stroke="rgb(0, 0, 0)" stroke-linecap="square" stroke-miterlimit="10" pointer-events="none"/><path d="M 492 471 M 542 471 M 542 501 M 492 501" fill="none" stroke="rgb(0, 0, 0)" stroke-linecap="square" stroke-miterlimit="10" pointer-events="none"/><path d="M 542 471 M 712 471 M 712 501 M 542 501" fill="none" stroke="rgb(0, 0, 0)" stroke-linecap="square" stroke-miterlimit="10" pointer-events="none"/><g fill="rgb(0, 0, 0)" font-family="Helvetica" pointer-events="none" clip-path="url(#mx-clip-548-471-164-30-0)" font-size="12px"><text x="549.5" y="490.5">published</text></g><path d="M 712 471 M 991 471 M 991 501 M 712 501" fill="none" stroke="rgb(0, 0, 0)" stroke-linecap="square" stroke-miterlimit="10" pointer-events="none"/><g fill="rgb(0, 0, 0)" font-family="Helvetica" pointer-events="none" clip-path="url(#mx-clip-718-471-273-30-0)" font-size="12px"><text x="719.5" y="490.5">BOOLEAN DEFAULT FALSE</text></g><path d="M 492 501 M 991 501 M 991 531 M 492 531" fill="none" stroke="rgb(0, 0, 0)" stroke-linecap="square" stroke-miterlimit="10" pointer-events="none"/><path d="M 492 501 M 542 501 M 542 531 M 492 531" fill="none" stroke="rgb(0, 0, 0)" stroke-linecap="square" stroke-miterlimit="10" pointer-events="none"/><path d="M 542 501 M 712 501 M 712 531 M 542 531" fill="none" stroke="rgb(0, 0, 0)" stroke-linecap="square" stroke-miterlimit="10" pointer-events="none"/><g fill="rgb(0, 0, 0)" font-family="Helvetica" pointer-events="none" clip-path="url(#mx-clip-548-501-164-30-0)" font-size="12px"><text x="549.5" y="520.5">created_at</text></g><path d="M 712 501 M 991 501 M 991 531 M 712 531" fill="none" stroke="rgb(0, 0, 0)" stroke-linecap="square" stroke-miterlimit="10" pointer-events="none"/><g fill="rgb(0, 0, 0)" font-family="Helvetica" pointer-events="none" clip-path="url(#mx-clip-718-501-273-30-0)" font-size="12px"><text x="719.5" y="520.5">TIMESTAMP DEFAULT CURRENT_TIMESTAMP</text></g><path d="M 492 531 M 991 531 M 991 561 M 492 561" fill="none" stroke="rgb(0, 0, 0)" stroke-linecap="square" stroke-miterlimit="10" pointer-events="none"/><path d="M 492 531 M 542 531 M 542 561 M 492 561" fill="none" stroke="rgb(0, 0, 0)" stroke-linecap="square" stroke-miterlimit="10" pointer-events="none"/><path d="M 542 531 M 712 531 M 712 561 M 542 561" fill="none" stroke="rgb(0, 0, 0)" stroke-linecap="square" stroke-miterlimit="10" pointer-events="none"/><g fill="rgb(0, 0, 0)" font-family="Helvetica" pointer-events="none" clip-path="url(#mx-clip-548-531-164-30-0)" font-size="12px"><text x="549.5" y="550.5">updated_at</text></g><path d="M 712 531 M 991 531 M 991 561 M 712 561" fill="none" stroke="rgb(0, 0, 0)" stroke-linecap="square" stroke-miterlimit="10" pointer-events="none"/><g fill="rgb(0, 0, 0)" font-family="Helvetica" pointer-events="none" clip-path="url(#mx-clip-718-531-273-30-0)" font-size="12px"><text x="719.5" y="550.5">TIMESTAMP</text></g><path d="M 492 561 M 991 561 M 991 591 M 492 591" fill="none" stroke="rgb(0, 0, 0)" stroke-linecap="square" stroke-miterlimit="10" pointer-events="none"/><path d="M 492 561 M 542 561 M 542 591 M 492 591" fill="none" stroke="rgb(0, 0, 0)" stroke-linecap="square" stroke-miterlimit="10" pointer-events="none"/><path d="M 542 561 M 712 561 M 712 591 M 542 591" fill="none" stroke="rgb(0, 0, 0)" stroke-linecap="square" stroke-miterlimit="10" pointer-events="none"/><g fill="rgb(0, 0, 0)" font-family="Helvetica" pointer-events="none" clip-path="url(#mx-clip-548-561-164-30-0)" font-size="12px"><text x="549.5" y="580.5">published_at</text></g><path d="M 712 561 M 991 561 M 991 591 M 712 591" fill="none" stroke="rgb(0, 0, 0)" stroke-linecap="square" stroke-miterlimit="10" pointer-events="none"/><g fill="rgb(0, 0, 0)" font-family="Helvetica" pointer-events="none" clip-path="url(#mx-clip-718-561-273-30-0)" font-size="12px"><text x="719.5" y="580.5">DATE</text></g><path d="M 492 591 M 991 591 M 991 621 M 492 621" fill="none" stroke="rgb(0, 0, 0)" stroke-linecap="square" stroke-miterlimit="10" pointer-events="none"/><path d="M 492 591 M 542 591 M 542 621 M 492 621" fill="none" stroke="rgb(0, 0, 0)" stroke-linecap="square" stroke-miterlimit="10" pointer-events="none"/><path d="M 542 591 M 712 591 M 712 621 M 542 621" fill="none" stroke="rgb(0, 0, 0)" stroke-linecap="square" stroke-miterlimit="10" pointer-events="none"/><g fill="rgb(0, 0, 0)" font-family="Helvetica" pointer-events="none" clip-path="url(#mx-clip-548-591-164-30-0)" font-size="12px"><text x="549.5" y="610.5">content</text></g><path d="M 712 591 M 991 591 M 991 621 M 712 621" fill="none" stroke="rgb(0, 0, 0)" stroke-linecap="square" stroke-miterlimit="10" pointer-events="none"/><g fill="rgb(0, 0, 0)" font-family="Helvetica" pointer-events="none" clip-path="url(#mx-clip-718-591-273-30-0)" font-size="12px"><text x="719.5" y="610.5">TEXT</text></g><path d="M 492 621 M 991 621 M 991 651 M 492 651" fill="none" stroke="rgb(0, 0, 0)" stroke-linecap="square" stroke-miterlimit="10" pointer-events="none"/><path d="M 492 621 M 542 621 M 542 651 M 492 651" fill="none" stroke="rgb(0, 0, 0)" stroke-linecap="square" stroke-miterlimit="10" pointer-events="none"/><path d="M 542 621 M 712 621 M 712 651 M 542 651" fill="none" stroke="rgb(0, 0, 0)" stroke-linecap="square" stroke-miterlimit="10" pointer-events="none"/><path d="M 712 621 M 991 621 M 991 651 M 712 651" fill="none" stroke="rgb(0, 0, 0)" stroke-linecap="square" stroke-miterlimit="10" pointer-events="none"/><path d="M 431 691 L 431 663.5 Q 431 641 408.5 641 L 114.5 641 Q 92 641 92 663.5 L 92 691" fill="#dae8fc" stroke="#6c8ebf" stroke-width="2" stroke-miterlimit="10" pointer-events="none"/><path d="M 92 691 L 92 758.5 Q 92 781 114.5 781 L 408.5 781 Q 431 781 431 758.5 L 431 691" fill="none" stroke="#6c8ebf" stroke-width="2" stroke-miterlimit="10" pointer-events="none"/><path d="M 92 691 L 431 691" fill="none" stroke="#6c8ebf" stroke-width="2" stroke-miterlimit="10" pointer-events="none"/><path d="M 142 691 L 142 721 L 142 751 L 142 781" fill="none" stroke="#6c8ebf" stroke-width="2" stroke-miterlimit="10" pointer-events="none"/><path d="M 312 691 L 312 721 L 312 751 L 312 781" fill="none" stroke="#6c8ebf" stroke-width="2" stroke-miterlimit="10" pointer-events="none"/><g fill="rgb(0, 0, 0)" font-family="Helvetica" font-weight="bold" pointer-events="none" text-anchor="middle" font-size="12px"><text x="261" y="670.5">post_x_tag</text></g><path d="M 92 691 M 431 691 M 431 721 L 92 721" fill="none" stroke="rgb(0, 0, 0)" stroke-linecap="square" stroke-miterlimit="10" pointer-events="none"/><path d="M 92 691 M 142 691 M 142 721 M 92 721" fill="none" stroke="rgb(0, 0, 0)" stroke-linecap="square" stroke-miterlimit="10" pointer-events="none"/><g fill="rgb(0, 0, 0)" font-family="Helvetica" font-weight="bold" pointer-events="none" clip-path="url(#mx-clip-92-691-50-30-0)" text-anchor="middle" font-size="12px"><text x="116.5" y="710.5">PK FK</text></g><path d="M 142 691 M 312 691 M 312 721 M 142 721" fill="none" stroke="rgb(0, 0, 0)" stroke-linecap="square" stroke-miterlimit="10" pointer-events="none"/><g fill="rgb(0, 0, 0)" font-family="Helvetica" font-weight="bold" text-decoration="underline" pointer-events="none" clip-path="url(#mx-clip-148-691-164-30-0)" font-size="12px"><text x="149.5" y="710.5">post_uuid</text></g><path d="M 312 691 M 431 691 M 431 721 M 312 721" fill="none" stroke="rgb(0, 0, 0)" stroke-linecap="square" stroke-miterlimit="10" pointer-events="none"/><g fill="rgb(0, 0, 0)" font-family="Helvetica" pointer-events="none" clip-path="url(#mx-clip-318-691-113-30-0)" font-size="12px"><text x="319.5" y="710.5">VARCHAR(36) NN</text></g><path d="M 92 721 M 431 721 M 431 751 L 92 751" fill="none" stroke="rgb(0, 0, 0)" stroke-linecap="square" stroke-miterlimit="10" pointer-events="none"/><path d="M 92 721 M 142 721 M 142 751 M 92 751" fill="none" stroke="rgb(0, 0, 0)" stroke-linecap="square" stroke-miterlimit="10" pointer-events="none"/><g fill="rgb(0, 0, 0)" font-family="Helvetica" font-weight="bold" pointer-events="none" clip-path="url(#mx-clip-92-721-50-30-0)" text-anchor="middle" font-size="12px"><text x="116.5" y="740.5">PK FK</text></g><path d="M 142 721 M 312 721 M 312 751 M 142 751" fill="none" stroke="rgb(0, 0, 0)" stroke-linecap="square" stroke-miterlimit="10" pointer-events="none"/><g fill="rgb(0, 0, 0)" font-family="Helvetica" font-weight="bold" text-decoration="underline" pointer-events="none" clip-path="url(#mx-clip-148-721-164-30-0)" font-size="12px"><text x="149.5" y="740.5">tag_id</text></g><path d="M 312 721 M 431 721 M 431 751 M 312 751" fill="none" stroke="rgb(0, 0, 0)" stroke-linecap="square" stroke-miterlimit="10" pointer-events="none"/><g fill="rgb(0, 0, 0)" font-family="Helvetica" pointer-events="none" clip-path="url(#mx-clip-318-721-113-30-0)" font-size="12px"><text x="319.5" y="740.5">INT NN</text></g><path d="M 92 751 M 431 751 M 431 781 M 92 781" fill="none" stroke="rgb(0, 0, 0)" stroke-linecap="square" stroke-miterlimit="10" pointer-events="none"/><path d="M 92 751 M 142 751 M 142 781 M 92 781" fill="none" stroke="rgb(0, 0, 0)" stroke-linecap="square" stroke-miterlimit="10" pointer-events="none"/><path d="M 142 751 M 312 751 M 312 781 M 142 781" fill="none" stroke="rgb(0, 0, 0)" stroke-linecap="square" stroke-miterlimit="10" pointer-events="none"/><path d="M 312 751 M 431 751 M 431 781 M 312 781" fill="none" stroke="rgb(0, 0, 0)" stroke-linecap="square" stroke-miterlimit="10" pointer-events="none"/><path d="M 391 376 L 421 376 L 421 521 L 321 521 L 321 641" fill="none" stroke="rgb(0, 0, 0)" stroke-miterlimit="10" pointer-events="none"/><path d="M 395 372 L 395 380 M 399 372 L 399 380" fill="none" stroke="rgb(0, 0, 0)" stroke-miterlimit="10" pointer-events="none"/><path d="M 317 633 L 325 633 M 325 641 L 321 633 L 317 641" fill="none" stroke="rgb(0, 0, 0)" stroke-miterlimit="10" pointer-events="none"/><path d="M 501 51 L 501 23.5 Q 501 1 478.5 1 L 23.5 1 Q 1 1 1 23.5 L 1 51" fill="#dae8fc" stroke="#6c8ebf" stroke-width="2" stroke-miterlimit="10" pointer-events="none"/><path d="M 1 51 L 1 238.5 Q 1 261 23.5 261 L 478.5 261 Q 501 261 501 238.5 L 501 51" fill="none" stroke="#6c8ebf" stroke-width="2" stroke-miterlimit="10" pointer-events="none"/><path d="M 1 51 L 501 51" fill="none" stroke="#6c8ebf" stroke-width="2" stroke-miterlimit="10" pointer-events="none"/><path d="M 51 51 L 51 81 L 51 111 L 51 141 L 51 171 L 51 201 L 51 231 L 51 261" fill="none" stroke="#6c8ebf" stroke-width="2" stroke-miterlimit="10" pointer-events="none"/><path d="M 221 51 L 221 81 L 221 111 L 221 141 L 221 171 L 221 201 L 221 231 L 221 261" fill="none" stroke="#6c8ebf" stroke-width="2" stroke-miterlimit="10" pointer-events="none"/><g fill="rgb(0, 0, 0)" font-family="Helvetica" font-weight="bold" pointer-events="none" text-anchor="middle" font-size="12px"><text x="250.5" y="30.5">blog_user</text></g><path d="M 1 51 M 501 51 M 501 81 L 1 81" fill="none" stroke="rgb(0, 0, 0)" stroke-linecap="square" stroke-miterlimit="10" pointer-events="none"/><path d="M 1 51 M 51 51 M 51 81 M 1 81" fill="none" stroke="rgb(0, 0, 0)" stroke-linecap="square" stroke-miterlimit="10" pointer-events="none"/><g fill="rgb(0, 0, 0)" font-family="Helvetica" font-weight="bold" pointer-events="none" clip-path="url(#mx-clip-1-51-50-30-0)" text-anchor="middle" font-size="12px"><text x="25.5" y="70.5">PK</text></g><path d="M 51 51 M 221 51 M 221 81 M 51 81" fill="none" stroke="rgb(0, 0, 0)" stroke-linecap="square" stroke-miterlimit="10" pointer-events="none"/><g fill="rgb(0, 0, 0)" font-family="Helvetica" font-weight="bold" text-decoration="underline" pointer-events="none" clip-path="url(#mx-clip-57-51-164-30-0)" font-size="12px"><text x="58.5" y="70.5">user_uuid</text></g><path d="M 221 51 M 501 51 M 501 81 M 221 81" fill="none" stroke="rgb(0, 0, 0)" stroke-linecap="square" stroke-miterlimit="10" pointer-events="none"/><g fill="rgb(0, 0, 0)" font-family="Helvetica" pointer-events="none" clip-path="url(#mx-clip-227-51-274-30-0)" font-size="12px"><text x="228.5" y="70.5">VARCHAR(36) NN</text></g><path d="M 1 81 M 501 81 M 501 111 M 1 111" fill="none" stroke="rgb(0, 0, 0)" stroke-linecap="square" stroke-miterlimit="10" pointer-events="none"/><path d="M 1 81 M 51 81 M 51 111 M 1 111" fill="none" stroke="rgb(0, 0, 0)" stroke-linecap="square" stroke-miterlimit="10" pointer-events="none"/><path d="M 51 81 M 221 81 M 221 111 M 51 111" fill="none" stroke="rgb(0, 0, 0)" stroke-linecap="square" stroke-miterlimit="10" pointer-events="none"/><g fill="rgb(0, 0, 0)" font-family="Helvetica" pointer-events="none" clip-path="url(#mx-clip-57-81-164-30-0)" font-size="12px"><text x="58.5" y="100.5">nickname</text></g><path d="M 221 81 M 501 81 M 501 111 M 221 111" fill="none" stroke="rgb(0, 0, 0)" stroke-linecap="square" stroke-miterlimit="10" pointer-events="none"/><g fill="rgb(0, 0, 0)" font-family="Helvetica" pointer-events="none" clip-path="url(#mx-clip-227-81-274-30-0)" font-size="12px"><text x="228.5" y="100.5">VARCHAR(20) NN</text></g><path d="M 1 111 M 501 111 M 501 141 M 1 141" fill="none" stroke="rgb(0, 0, 0)" stroke-linecap="square" stroke-miterlimit="10" pointer-events="none"/><path d="M 1 111 M 51 111 M 51 141 M 1 141" fill="none" stroke="rgb(0, 0, 0)" stroke-linecap="square" stroke-miterlimit="10" pointer-events="none"/><path d="M 51 111 M 221 111 M 221 141 M 51 141" fill="none" stroke="rgb(0, 0, 0)" stroke-linecap="square" stroke-miterlimit="10" pointer-events="none"/><g fill="rgb(0, 0, 0)" font-family="Helvetica" pointer-events="none" clip-path="url(#mx-clip-57-111-164-30-0)" font-size="12px"><text x="58.5" y="130.5">email</text></g><path d="M 221 111 M 501 111 M 501 141 M 221 141" fill="none" stroke="rgb(0, 0, 0)" stroke-linecap="square" stroke-miterlimit="10" pointer-events="none"/><g fill="rgb(0, 0, 0)" font-family="Helvetica" pointer-events="none" clip-path="url(#mx-clip-227-111-274-30-0)" font-size="12px"><text x="228.5" y="130.5">VARCHAR(20) NN</text></g><path d="M 1 141 M 501 141 M 501 171 M 1 171" fill="none" stroke="rgb(0, 0, 0)" stroke-linecap="square" stroke-miterlimit="10" pointer-events="none"/><path d="M 1 141 M 51 141 M 51 171 M 1 171" fill="none" stroke="rgb(0, 0, 0)" stroke-linecap="square" stroke-miterlimit="10" pointer-events="none"/><path d="M 51 141 M 221 141 M 221 171 M 51 171" fill="none" stroke="rgb(0, 0, 0)" stroke-linecap="square" stroke-miterlimit="10" pointer-events="none"/><g fill="rgb(0, 0, 0)" font-family="Helvetica" pointer-events="none" clip-path="url(#mx-clip-57-141-164-30-0)" font-size="12px"><text x="58.5" y="160.5">password_md5_hash</text></g><path d="M 221 141 M 501 141 M 501 171 M 221 171" fill="none" stroke="rgb(0, 0, 0)" stroke-linecap="square" stroke-miterlimit="10" pointer-events="none"/><g fill="rgb(0, 0, 0)" font-family="Helvetica" pointer-events="none" clip-path="url(#mx-clip-227-141-274-30-0)" font-size="12px"><text x="228.5" y="160.5">VARCHAR(32)</text></g><path d="M 1 171 M 501 171 M 501 201 M 1 201" fill="none" stroke="rgb(0, 0, 0)" stroke-linecap="square" stroke-miterlimit="10" pointer-events="none"/><path d="M 1 171 M 51 171 M 51 201 M 1 201" fill="none" stroke="rgb(0, 0, 0)" stroke-linecap="square" stroke-miterlimit="10" pointer-events="none"/><path d="M 51 171 M 221 171 M 221 201 M 51 201" fill="none" stroke="rgb(0, 0, 0)" stroke-linecap="square" stroke-miterlimit="10" pointer-events="none"/><g fill="rgb(0, 0, 0)" font-family="Helvetica" pointer-events="none" clip-path="url(#mx-clip-57-171-164-30-0)" font-size="12px"><text x="58.5" y="190.5">signature</text></g><path d="M 221 171 M 501 171 M 501 201 M 221 201" fill="none" stroke="rgb(0, 0, 0)" stroke-linecap="square" stroke-miterlimit="10" pointer-events="none"/><g fill="rgb(0, 0, 0)" font-family="Helvetica" pointer-events="none" clip-path="url(#mx-clip-227-171-274-30-0)" font-size="12px"><text x="228.5" y="190.5">VARCHAR(100)</text></g><path d="M 1 201 M 501 201 M 501 231 M 1 231" fill="none" stroke="rgb(0, 0, 0)" stroke-linecap="square" stroke-miterlimit="10" pointer-events="none"/><path d="M 1 201 M 51 201 M 51 231 M 1 231" fill="none" stroke="rgb(0, 0, 0)" stroke-linecap="square" stroke-miterlimit="10" pointer-events="none"/><path d="M 51 201 M 221 201 M 221 231 M 51 231" fill="none" stroke="rgb(0, 0, 0)" stroke-linecap="square" stroke-miterlimit="10" pointer-events="none"/><g fill="rgb(0, 0, 0)" font-family="Helvetica" pointer-events="none" clip-path="url(#mx-clip-57-201-164-30-0)" font-size="12px"><text x="58.5" y="220.5">registered_at</text></g><path d="M 221 201 M 501 201 M 501 231 M 221 231" fill="none" stroke="rgb(0, 0, 0)" stroke-linecap="square" stroke-miterlimit="10" pointer-events="none"/><g fill="rgb(0, 0, 0)" font-family="Helvetica" pointer-events="none" clip-path="url(#mx-clip-227-201-274-30-0)" font-size="12px"><text x="228.5" y="220.5">TIMESTAMP DEFAULT CURRENT_TIMESTAMP</text></g><path d="M 1 231 M 501 231 M 501 261 M 1 261" fill="none" stroke="rgb(0, 0, 0)" stroke-linecap="square" stroke-miterlimit="10" pointer-events="none"/><path d="M 1 231 M 51 231 M 51 261 M 1 261" fill="none" stroke="rgb(0, 0, 0)" stroke-linecap="square" stroke-miterlimit="10" pointer-events="none"/><path d="M 51 231 M 221 231 M 221 261 M 51 261" fill="none" stroke="rgb(0, 0, 0)" stroke-linecap="square" stroke-miterlimit="10" pointer-events="none"/><path d="M 221 231 M 501 231 M 501 261 M 221 261" fill="none" stroke="rgb(0, 0, 0)" stroke-linecap="square" stroke-miterlimit="10" pointer-events="none"/><path d="M 501 66 L 544.83 66 L 544.89 300.65" fill="none" stroke="rgb(0, 0, 0)" stroke-miterlimit="10" pointer-events="none"/><path d="M 505 62 L 505 70 M 509 62 L 509 70" fill="none" stroke="rgb(0, 0, 0)" stroke-miterlimit="10" pointer-events="none"/><path d="M 540.89 292.65 L 548.89 292.65 M 548.89 300.65 L 544.89 292.65 L 540.89 300.65" fill="none" stroke="rgb(0, 0, 0)" stroke-miterlimit="10" pointer-events="none"/><path d="M 1191 51 L 1191 23.5 Q 1191 1 1168.5 1 L 713.5 1 Q 691 1 691 23.5 L 691 51" fill="#dae8fc" stroke="#6c8ebf" stroke-width="2" stroke-miterlimit="10" pointer-events="none"/><path d="M 691 51 L 691 238.5 Q 691 261 713.5 261 L 1168.5 261 Q 1191 261 1191 238.5 L 1191 51" fill="none" stroke="#6c8ebf" stroke-width="2" stroke-miterlimit="10" pointer-events="none"/><path d="M 691 51 L 1191 51" fill="none" stroke="#6c8ebf" stroke-width="2" stroke-miterlimit="10" pointer-events="none"/><path d="M 741 51 L 741 81 L 741 111 L 741 141 L 741 171 L 741 201 L 741 231 L 741 261" fill="none" stroke="#6c8ebf" stroke-width="2" stroke-miterlimit="10" pointer-events="none"/><path d="M 911 51 L 911 81 L 911 111 L 911 141 L 911 171 L 911 201 L 911 231 L 911 261" fill="none" stroke="#6c8ebf" stroke-width="2" stroke-miterlimit="10" pointer-events="none"/><g fill="rgb(0, 0, 0)" font-family="Helvetica" font-weight="bold" pointer-events="none" text-anchor="middle" font-size="12px"><text x="940.5" y="30.5">post_comment</text></g><path d="M 691 51 M 1191 51 M 1191 81 L 691 81" fill="none" stroke="rgb(0, 0, 0)" stroke-linecap="square" stroke-miterlimit="10" pointer-events="none"/><path d="M 691 51 M 741 51 M 741 81 M 691 81" fill="none" stroke="rgb(0, 0, 0)" stroke-linecap="square" stroke-miterlimit="10" pointer-events="none"/><g fill="rgb(0, 0, 0)" font-family="Helvetica" font-weight="bold" pointer-events="none" clip-path="url(#mx-clip-691-51-50-30-0)" text-anchor="middle" font-size="12px"><text x="715.5" y="70.5">PK</text></g><path d="M 741 51 M 911 51 M 911 81 M 741 81" fill="none" stroke="rgb(0, 0, 0)" stroke-linecap="square" stroke-miterlimit="10" pointer-events="none"/><g fill="rgb(0, 0, 0)" font-family="Helvetica" font-weight="bold" text-decoration="underline" pointer-events="none" clip-path="url(#mx-clip-747-51-164-30-0)" font-size="12px"><text x="748.5" y="70.5">comment_uuid</text></g><path d="M 911 51 M 1191 51 M 1191 81 M 911 81" fill="none" stroke="rgb(0, 0, 0)" stroke-linecap="square" stroke-miterlimit="10" pointer-events="none"/><g fill="rgb(0, 0, 0)" font-family="Helvetica" pointer-events="none" clip-path="url(#mx-clip-917-51-274-30-0)" font-size="12px"><text x="918.5" y="70.5">VARCHAR(36) NN</text></g><path d="M 691 81 M 1191 81 M 1191 111 M 691 111" fill="none" stroke="rgb(0, 0, 0)" stroke-linecap="square" stroke-miterlimit="10" pointer-events="none"/><path d="M 691 81 M 741 81 M 741 111 M 691 111" fill="none" stroke="rgb(0, 0, 0)" stroke-linecap="square" stroke-miterlimit="10" pointer-events="none"/><g fill="rgb(0, 0, 0)" font-family="Helvetica" pointer-events="none" clip-path="url(#mx-clip-691-81-50-30-0)" text-anchor="middle" font-size="12px"><text x="715.5" y="100.5">FK</text></g><path d="M 741 81 M 911 81 M 911 111 M 741 111" fill="none" stroke="rgb(0, 0, 0)" stroke-linecap="square" stroke-miterlimit="10" pointer-events="none"/><g fill="rgb(0, 0, 0)" font-family="Helvetica" pointer-events="none" clip-path="url(#mx-clip-747-81-164-30-0)" font-size="12px"><text x="748.5" y="100.5">postId</text></g><path d="M 911 81 M 1191 81 M 1191 111 M 911 111" fill="none" stroke="rgb(0, 0, 0)" stroke-linecap="square" stroke-miterlimit="10" pointer-events="none"/><g fill="rgb(0, 0, 0)" font-family="Helvetica" pointer-events="none" clip-path="url(#mx-clip-917-81-274-30-0)" font-size="12px"><text x="918.5" y="100.5">INT NN</text></g><path d="M 691 111 M 1191 111 M 1191 141 M 691 141" fill="none" stroke="rgb(0, 0, 0)" stroke-linecap="square" stroke-miterlimit="10" pointer-events="none"/><path d="M 691 111 M 741 111 M 741 141 M 691 141" fill="none" stroke="rgb(0, 0, 0)" stroke-linecap="square" stroke-miterlimit="10" pointer-events="none"/><path d="M 741 111 M 911 111 M 911 141 M 741 141" fill="none" stroke="rgb(0, 0, 0)" stroke-linecap="square" stroke-miterlimit="10" pointer-events="none"/><g fill="rgb(0, 0, 0)" font-family="Helvetica" pointer-events="none" clip-path="url(#mx-clip-747-111-164-30-0)" font-size="12px"><text x="748.5" y="130.5">content</text></g><path d="M 911 111 M 1191 111 M 1191 141 M 911 141" fill="none" stroke="rgb(0, 0, 0)" stroke-linecap="square" stroke-miterlimit="10" pointer-events="none"/><g fill="rgb(0, 0, 0)" font-family="Helvetica" pointer-events="none" clip-path="url(#mx-clip-917-111-274-30-0)" font-size="12px"><text x="918.5" y="130.5">TEXT</text></g><path d="M 691 141 M 1191 141 M 1191 171 M 691 171" fill="none" stroke="rgb(0, 0, 0)" stroke-linecap="square" stroke-miterlimit="10" pointer-events="none"/><path d="M 691 141 M 741 141 M 741 171 M 691 171" fill="none" stroke="rgb(0, 0, 0)" stroke-linecap="square" stroke-miterlimit="10" pointer-events="none"/><path d="M 741 141 M 911 141 M 911 171 M 741 171" fill="none" stroke="rgb(0, 0, 0)" stroke-linecap="square" stroke-miterlimit="10" pointer-events="none"/><g fill="rgb(0, 0, 0)" font-family="Helvetica" pointer-events="none" clip-path="url(#mx-clip-747-141-164-30-0)" font-size="12px"><text x="748.5" y="160.5">published</text></g><path d="M 911 141 M 1191 141 M 1191 171 M 911 171" fill="none" stroke="rgb(0, 0, 0)" stroke-linecap="square" stroke-miterlimit="10" pointer-events="none"/><g fill="rgb(0, 0, 0)" font-family="Helvetica" pointer-events="none" clip-path="url(#mx-clip-917-141-274-30-0)" font-size="12px"><text x="918.5" y="160.5">BOOLEAN DEFAULT FALSE</text></g><path d="M 691 171 M 1191 171 M 1191 201 M 691 201" fill="none" stroke="rgb(0, 0, 0)" stroke-linecap="square" stroke-miterlimit="10" pointer-events="none"/><path d="M 691 171 M 741 171 M 741 201 M 691 201" fill="none" stroke="rgb(0, 0, 0)" stroke-linecap="square" stroke-miterlimit="10" pointer-events="none"/><path d="M 741 171 M 911 171 M 911 201 M 741 201" fill="none" stroke="rgb(0, 0, 0)" stroke-linecap="square" stroke-miterlimit="10" pointer-events="none"/><g fill="rgb(0, 0, 0)" font-family="Helvetica" pointer-events="none" clip-path="url(#mx-clip-747-171-164-30-0)" font-size="12px"><text x="748.5" y="190.5">createdAt</text></g><path d="M 911 171 M 1191 171 M 1191 201 M 911 201" fill="none" stroke="rgb(0, 0, 0)" stroke-linecap="square" stroke-miterlimit="10" pointer-events="none"/><g fill="rgb(0, 0, 0)" font-family="Helvetica" pointer-events="none" clip-path="url(#mx-clip-917-171-274-30-0)" font-size="12px"><text x="918.5" y="190.5">TIMESTAMP DEFAULT CURRENT_TIMESTAMP</text></g><path d="M 691 201 M 1191 201 M 1191 231 M 691 231" fill="none" stroke="rgb(0, 0, 0)" stroke-linecap="square" stroke-miterlimit="10" pointer-events="none"/><path d="M 691 201 M 741 201 M 741 231 M 691 231" fill="none" stroke="rgb(0, 0, 0)" stroke-linecap="square" stroke-miterlimit="10" pointer-events="none"/><path d="M 741 201 M 911 201 M 911 231 M 741 231" fill="none" stroke="rgb(0, 0, 0)" stroke-linecap="square" stroke-miterlimit="10" pointer-events="none"/><g fill="rgb(0, 0, 0)" font-family="Helvetica" pointer-events="none" clip-path="url(#mx-clip-747-201-164-30-0)" font-size="12px"><text x="748.5" y="220.5">publishedAt</text></g><path d="M 911 201 M 1191 201 M 1191 231 M 911 231" fill="none" stroke="rgb(0, 0, 0)" stroke-linecap="square" stroke-miterlimit="10" pointer-events="none"/><g fill="rgb(0, 0, 0)" font-family="Helvetica" pointer-events="none" clip-path="url(#mx-clip-917-201-274-30-0)" font-size="12px"><text x="918.5" y="220.5">TIMESTAMP</text></g><path d="M 691 231 M 1191 231 M 1191 261 M 691 261" fill="none" stroke="rgb(0, 0, 0)" stroke-linecap="square" stroke-miterlimit="10" pointer-events="none"/><path d="M 691 231 M 741 231 M 741 261 M 691 261" fill="none" stroke="rgb(0, 0, 0)" stroke-linecap="square" stroke-miterlimit="10" pointer-events="none"/><path d="M 741 231 M 911 231 M 911 261 M 741 261" fill="none" stroke="rgb(0, 0, 0)" stroke-linecap="square" stroke-miterlimit="10" pointer-events="none"/><path d="M 911 231 M 1191 231 M 1191 261 M 911 261" fill="none" stroke="rgb(0, 0, 0)" stroke-linecap="square" stroke-miterlimit="10" pointer-events="none"/></g></svg>